<mxfile host="Electron" modified="2020-11-19T12:44:19.999Z" agent="5.0 (Windows NT 10.0; Win64; x64) AppleWebKit/537.36 (KHTML, like Gecko) draw.io/13.2.2 Chrome/83.0.4103.100 Electron/9.0.3 Safari/537.36" etag="KOK0z3l5l_u5VRHJWkEq" compressed="false" version="13.2.2" type="device" pages="2">
  <diagram id="B_E7jPEd5zCCRzA06gY5" name="System ON">
    <mxGraphModel dx="1422" dy="862" grid="1" gridSize="10" guides="1" tooltips="1" connect="1" arrows="1" fold="1" page="1" pageScale="1" pageWidth="1169" pageHeight="827" math="0" shadow="0">
      <root>
        <mxCell id="0" />
        <mxCell id="1" parent="0" />
        <mxCell id="fhZxhXPPpSbEkBJhLK2J-2" value="" style="shape=umlLifeline;participant=umlActor;perimeter=lifelinePerimeter;whiteSpace=wrap;html=1;container=1;collapsible=0;recursiveResize=0;verticalAlign=top;spacingTop=36;labelBackgroundColor=#ffffff;outlineConnect=0;" vertex="1" parent="1">
          <mxGeometry x="30" y="10" width="20" height="1150" as="geometry" />
        </mxCell>
        <mxCell id="fhZxhXPPpSbEkBJhLK2J-3" value=":button" style="shape=umlLifeline;perimeter=lifelinePerimeter;whiteSpace=wrap;html=1;container=1;collapsible=0;recursiveResize=0;outlineConnect=0;" vertex="1" parent="1">
          <mxGeometry x="80" y="10" width="100" height="1150" as="geometry" />
        </mxCell>
        <mxCell id="fhZxhXPPpSbEkBJhLK2J-7" value="" style="html=1;points=[];perimeter=orthogonalPerimeter;" vertex="1" parent="fhZxhXPPpSbEkBJhLK2J-3">
          <mxGeometry x="45" y="60" width="10" height="100" as="geometry" />
        </mxCell>
        <mxCell id="mY-t7U6XuDwN59D6PSuR-2" value="Press Button" style="html=1;verticalAlign=bottom;endArrow=block;" edge="1" parent="1" source="fhZxhXPPpSbEkBJhLK2J-2" target="fhZxhXPPpSbEkBJhLK2J-7">
          <mxGeometry width="80" relative="1" as="geometry">
            <mxPoint x="45" y="70" as="sourcePoint" />
            <mxPoint x="620" y="310" as="targetPoint" />
            <Array as="points">
              <mxPoint x="120" y="70" />
            </Array>
          </mxGeometry>
        </mxCell>
        <mxCell id="mY-t7U6XuDwN59D6PSuR-4" value=":CPU" style="html=1;points=[];perimeter=orthogonalPerimeter;shape=umlLifeline;participant=label;fontFamily=Helvetica;fontSize=12;fontColor=#000000;align=center;strokeColor=#000000;fillColor=#ffffff;recursiveResize=0;container=1;collapsible=0;" vertex="1" parent="1">
          <mxGeometry x="220" y="10" width="212" height="1160" as="geometry" />
        </mxCell>
        <mxCell id="mY-t7U6XuDwN59D6PSuR-37" value="" style="html=1;points=[];perimeter=orthogonalPerimeter;fontSize=12;" vertex="1" parent="mY-t7U6XuDwN59D6PSuR-4">
          <mxGeometry x="100" y="160" width="10" height="490" as="geometry" />
        </mxCell>
        <mxCell id="mY-t7U6XuDwN59D6PSuR-49" value="Starting" style="text;html=1;align=center;verticalAlign=middle;resizable=0;points=[];autosize=1;fontSize=12;fontStyle=1" vertex="1" parent="mY-t7U6XuDwN59D6PSuR-4">
          <mxGeometry x="25" y="394" width="60" height="20" as="geometry" />
        </mxCell>
        <mxCell id="mY-t7U6XuDwN59D6PSuR-50" value="" style="html=1;points=[];perimeter=orthogonalPerimeter;fontSize=12;" vertex="1" parent="mY-t7U6XuDwN59D6PSuR-4">
          <mxGeometry x="101" y="60" width="10" height="60" as="geometry" />
        </mxCell>
        <mxCell id="mY-t7U6XuDwN59D6PSuR-54" value="" style="html=1;points=[];perimeter=orthogonalPerimeter;fontSize=12;" vertex="1" parent="mY-t7U6XuDwN59D6PSuR-4">
          <mxGeometry x="101" y="680" width="10" height="120" as="geometry" />
        </mxCell>
        <mxCell id="mY-t7U6XuDwN59D6PSuR-7" value="Hardware Interrupt" style="html=1;verticalAlign=bottom;endArrow=openAsync;endFill=0;" edge="1" target="mY-t7U6XuDwN59D6PSuR-37" parent="1" source="fhZxhXPPpSbEkBJhLK2J-3">
          <mxGeometry relative="1" as="geometry">
            <mxPoint x="210" y="200" as="sourcePoint" />
            <mxPoint x="347.5" y="150" as="targetPoint" />
            <Array as="points">
              <mxPoint x="180" y="170" />
            </Array>
          </mxGeometry>
        </mxCell>
        <mxCell id="mY-t7U6XuDwN59D6PSuR-16" value=":Display" style="shape=umlLifeline;perimeter=lifelinePerimeter;whiteSpace=wrap;html=1;container=1;collapsible=0;recursiveResize=0;outlineConnect=0;fontSize=12;" vertex="1" parent="1">
          <mxGeometry x="460" y="10" width="100" height="1150" as="geometry" />
        </mxCell>
        <mxCell id="mY-t7U6XuDwN59D6PSuR-28" value="" style="html=1;points=[];perimeter=orthogonalPerimeter;fontSize=8;" vertex="1" parent="mY-t7U6XuDwN59D6PSuR-16">
          <mxGeometry x="45" y="240" width="10" height="160" as="geometry" />
        </mxCell>
        <mxCell id="mY-t7U6XuDwN59D6PSuR-41" value="" style="html=1;points=[];perimeter=orthogonalPerimeter;fontSize=12;" vertex="1" parent="mY-t7U6XuDwN59D6PSuR-16">
          <mxGeometry x="45" y="530" width="10" height="35" as="geometry" />
        </mxCell>
        <mxCell id="mY-t7U6XuDwN59D6PSuR-46" value="" style="html=1;points=[];perimeter=orthogonalPerimeter;fontSize=12;" vertex="1" parent="mY-t7U6XuDwN59D6PSuR-16">
          <mxGeometry x="45" y="460" width="10" height="35" as="geometry" />
        </mxCell>
        <mxCell id="mY-t7U6XuDwN59D6PSuR-17" value=":PowerBar" style="shape=umlLifeline;perimeter=lifelinePerimeter;whiteSpace=wrap;html=1;container=1;collapsible=0;recursiveResize=0;outlineConnect=0;fontSize=12;" vertex="1" parent="1">
          <mxGeometry x="600" y="10" width="100" height="1150" as="geometry" />
        </mxCell>
        <mxCell id="mY-t7U6XuDwN59D6PSuR-31" value="" style="html=1;points=[];perimeter=orthogonalPerimeter;fontSize=12;" vertex="1" parent="mY-t7U6XuDwN59D6PSuR-17">
          <mxGeometry x="45" y="270" width="10" height="140" as="geometry" />
        </mxCell>
        <mxCell id="mY-t7U6XuDwN59D6PSuR-18" value=":Buzzer" style="shape=umlLifeline;perimeter=lifelinePerimeter;whiteSpace=wrap;html=1;container=1;collapsible=0;recursiveResize=0;outlineConnect=0;fontSize=12;" vertex="1" parent="1">
          <mxGeometry x="740" y="10" width="100" height="1150" as="geometry" />
        </mxCell>
        <mxCell id="mY-t7U6XuDwN59D6PSuR-34" value="" style="html=1;points=[];perimeter=orthogonalPerimeter;fontSize=12;" vertex="1" parent="mY-t7U6XuDwN59D6PSuR-18">
          <mxGeometry x="45" y="300" width="10" height="120" as="geometry" />
        </mxCell>
        <mxCell id="mY-t7U6XuDwN59D6PSuR-19" value=":DCDC" style="shape=umlLifeline;perimeter=lifelinePerimeter;whiteSpace=wrap;html=1;container=1;collapsible=0;recursiveResize=0;outlineConnect=0;fontSize=12;" vertex="1" parent="1">
          <mxGeometry x="880" y="10" width="100" height="1150" as="geometry" />
        </mxCell>
        <mxCell id="mY-t7U6XuDwN59D6PSuR-38" value="" style="html=1;points=[];perimeter=orthogonalPerimeter;fontSize=12;" vertex="1" parent="mY-t7U6XuDwN59D6PSuR-19">
          <mxGeometry x="45" y="600" width="10" height="50" as="geometry" />
        </mxCell>
        <mxCell id="mY-t7U6XuDwN59D6PSuR-20" value=":SensorEntrada" style="shape=umlLifeline;perimeter=lifelinePerimeter;whiteSpace=wrap;html=1;container=1;collapsible=0;recursiveResize=0;outlineConnect=0;fontSize=12;" vertex="1" parent="1">
          <mxGeometry x="1030" y="10" width="100" height="1150" as="geometry" />
        </mxCell>
        <mxCell id="mY-t7U6XuDwN59D6PSuR-25" value="" style="html=1;points=[];perimeter=orthogonalPerimeter;fontSize=8;" vertex="1" parent="mY-t7U6XuDwN59D6PSuR-20">
          <mxGeometry x="45" y="160" width="10" height="30" as="geometry" />
        </mxCell>
        <mxCell id="mY-t7U6XuDwN59D6PSuR-23" value="&lt;font style=&quot;font-size: 12px&quot;&gt;CheckLevels&lt;/font&gt;" style="html=1;verticalAlign=bottom;endArrow=block;fontSize=8;entryX=0;entryY=-0.002;entryDx=0;entryDy=0;entryPerimeter=0;" edge="1" parent="1" source="mY-t7U6XuDwN59D6PSuR-37" target="mY-t7U6XuDwN59D6PSuR-25">
          <mxGeometry width="80" relative="1" as="geometry">
            <mxPoint x="364.75" y="170" as="sourcePoint" />
            <mxPoint x="515" y="190" as="targetPoint" />
          </mxGeometry>
        </mxCell>
        <mxCell id="mY-t7U6XuDwN59D6PSuR-26" value="[Status=Good]" style="html=1;verticalAlign=bottom;endArrow=open;dashed=1;endSize=8;fontSize=12;exitX=-0.019;exitY=1;exitDx=0;exitDy=0;exitPerimeter=0;" edge="1" parent="1" source="mY-t7U6XuDwN59D6PSuR-25" target="mY-t7U6XuDwN59D6PSuR-37">
          <mxGeometry relative="1" as="geometry">
            <mxPoint x="530" y="210" as="sourcePoint" />
            <mxPoint x="450" y="210" as="targetPoint" />
          </mxGeometry>
        </mxCell>
        <mxCell id="mY-t7U6XuDwN59D6PSuR-29" value="&amp;nbsp;Display &lt;br&gt;StartScreen" style="html=1;verticalAlign=bottom;endArrow=block;entryX=0;entryY=0;fontSize=12;" edge="1" target="mY-t7U6XuDwN59D6PSuR-28" parent="1" source="mY-t7U6XuDwN59D6PSuR-37">
          <mxGeometry x="0.0249" relative="1" as="geometry">
            <mxPoint x="370" y="220" as="sourcePoint" />
            <Array as="points" />
            <mxPoint as="offset" />
          </mxGeometry>
        </mxCell>
        <mxCell id="mY-t7U6XuDwN59D6PSuR-32" value="Display &lt;br&gt;Start animation" style="html=1;verticalAlign=bottom;endArrow=block;entryX=0;entryY=0;fontSize=12;" edge="1" target="mY-t7U6XuDwN59D6PSuR-31" parent="1" source="mY-t7U6XuDwN59D6PSuR-37">
          <mxGeometry x="0.5873" relative="1" as="geometry">
            <mxPoint x="330" y="260" as="sourcePoint" />
            <Array as="points" />
            <mxPoint as="offset" />
          </mxGeometry>
        </mxCell>
        <mxCell id="mY-t7U6XuDwN59D6PSuR-35" value="Play&lt;br&gt;Start Melody" style="html=1;verticalAlign=bottom;endArrow=block;entryX=0;entryY=0;fontSize=12;" edge="1" target="mY-t7U6XuDwN59D6PSuR-34" parent="1" source="mY-t7U6XuDwN59D6PSuR-37">
          <mxGeometry x="0.7391" relative="1" as="geometry">
            <mxPoint x="380" y="280" as="sourcePoint" />
            <mxPoint as="offset" />
          </mxGeometry>
        </mxCell>
        <mxCell id="mY-t7U6XuDwN59D6PSuR-36" value="return" style="html=1;verticalAlign=bottom;endArrow=open;dashed=1;endSize=8;exitX=0;exitY=0.95;fontSize=12;" edge="1" source="mY-t7U6XuDwN59D6PSuR-34" parent="1" target="mY-t7U6XuDwN59D6PSuR-37">
          <mxGeometry x="-0.8022" relative="1" as="geometry">
            <mxPoint x="365.2149999999999" y="291.98" as="targetPoint" />
            <mxPoint as="offset" />
          </mxGeometry>
        </mxCell>
        <mxCell id="mY-t7U6XuDwN59D6PSuR-33" value="finish" style="html=1;verticalAlign=bottom;endArrow=open;dashed=1;endSize=8;exitX=0;exitY=0.95;fontSize=12;" edge="1" source="mY-t7U6XuDwN59D6PSuR-31" parent="1" target="mY-t7U6XuDwN59D6PSuR-37">
          <mxGeometry x="-0.7634" relative="1" as="geometry">
            <mxPoint x="330" y="373.9999999999999" as="targetPoint" />
            <mxPoint as="offset" />
          </mxGeometry>
        </mxCell>
        <mxCell id="mY-t7U6XuDwN59D6PSuR-30" value="finish" style="html=1;verticalAlign=bottom;endArrow=open;dashed=1;endSize=8;exitX=0;exitY=0.95;fontSize=12;" edge="1" source="mY-t7U6XuDwN59D6PSuR-28" parent="1" target="mY-t7U6XuDwN59D6PSuR-37">
          <mxGeometry x="-0.597" relative="1" as="geometry">
            <mxPoint x="585.62" y="296.67" as="targetPoint" />
            <mxPoint as="offset" />
          </mxGeometry>
        </mxCell>
        <mxCell id="mY-t7U6XuDwN59D6PSuR-39" value="Lastvoltage" style="html=1;verticalAlign=bottom;endArrow=block;entryX=0;entryY=0;fontSize=12;" edge="1" target="mY-t7U6XuDwN59D6PSuR-38" parent="1" source="mY-t7U6XuDwN59D6PSuR-37">
          <mxGeometry x="0.8039" relative="1" as="geometry">
            <mxPoint x="1025" y="390" as="sourcePoint" />
            <mxPoint as="offset" />
          </mxGeometry>
        </mxCell>
        <mxCell id="mY-t7U6XuDwN59D6PSuR-40" value="return" style="html=1;verticalAlign=bottom;endArrow=open;dashed=1;endSize=8;exitX=0;exitY=0.95;fontSize=12;" edge="1" source="mY-t7U6XuDwN59D6PSuR-38" parent="1" target="mY-t7U6XuDwN59D6PSuR-37">
          <mxGeometry x="-0.8039" relative="1" as="geometry">
            <mxPoint x="1025" y="466" as="targetPoint" />
            <mxPoint as="offset" />
          </mxGeometry>
        </mxCell>
        <mxCell id="mY-t7U6XuDwN59D6PSuR-42" value="Display Voltage" style="html=1;verticalAlign=bottom;endArrow=block;entryX=0;entryY=0;fontSize=12;" edge="1" target="mY-t7U6XuDwN59D6PSuR-41" parent="1" source="mY-t7U6XuDwN59D6PSuR-37">
          <mxGeometry relative="1" as="geometry">
            <mxPoint x="585" y="390" as="sourcePoint" />
          </mxGeometry>
        </mxCell>
        <mxCell id="mY-t7U6XuDwN59D6PSuR-43" value="return" style="html=1;verticalAlign=bottom;endArrow=open;dashed=1;endSize=8;exitX=0;exitY=0.95;fontSize=12;" edge="1" source="mY-t7U6XuDwN59D6PSuR-41" parent="1" target="mY-t7U6XuDwN59D6PSuR-37">
          <mxGeometry relative="1" as="geometry">
            <mxPoint x="585" y="466" as="targetPoint" />
          </mxGeometry>
        </mxCell>
        <mxCell id="mY-t7U6XuDwN59D6PSuR-48" value="Display Cap" style="html=1;verticalAlign=bottom;endArrow=block;entryX=0;entryY=0;fontSize=12;" edge="1" target="mY-t7U6XuDwN59D6PSuR-46" parent="1" source="mY-t7U6XuDwN59D6PSuR-37">
          <mxGeometry relative="1" as="geometry">
            <mxPoint x="330.62" y="470" as="sourcePoint" />
          </mxGeometry>
        </mxCell>
        <mxCell id="mY-t7U6XuDwN59D6PSuR-47" value="return" style="html=1;verticalAlign=bottom;endArrow=open;dashed=1;endSize=8;exitX=0;exitY=0.95;fontSize=12;" edge="1" source="mY-t7U6XuDwN59D6PSuR-46" parent="1" target="mY-t7U6XuDwN59D6PSuR-37">
          <mxGeometry relative="1" as="geometry">
            <mxPoint x="330.62" y="503.25" as="targetPoint" />
          </mxGeometry>
        </mxCell>
        <mxCell id="mY-t7U6XuDwN59D6PSuR-53" value="System Off" style="text;html=1;align=center;verticalAlign=middle;resizable=0;points=[];autosize=1;fontSize=12;fontStyle=1" vertex="1" parent="1">
          <mxGeometry x="235" y="90" width="80" height="20" as="geometry" />
        </mxCell>
        <mxCell id="mY-t7U6XuDwN59D6PSuR-57" value="System On" style="text;html=1;align=center;verticalAlign=middle;resizable=0;points=[];autosize=1;fontSize=12;fontStyle=1" vertex="1" parent="1">
          <mxGeometry x="245" y="730" width="80" height="20" as="geometry" />
        </mxCell>
      </root>
    </mxGraphModel>
  </diagram>
  <diagram id="DydGgKOtr8q0hYVY2Js_" name="Page-2">
    <mxGraphModel dx="1497" dy="907" grid="1" gridSize="10" guides="1" tooltips="1" connect="1" arrows="1" fold="1" page="1" pageScale="1" pageWidth="1169" pageHeight="827" math="0" shadow="0">
      <root>
        <mxCell id="NW6e4E3KcO4SWbB2THCr-0" />
        <mxCell id="NW6e4E3KcO4SWbB2THCr-1" parent="NW6e4E3KcO4SWbB2THCr-0" />
      </root>
    </mxGraphModel>
  </diagram>
</mxfile>
